<svg xmlns="http://www.w3.org/2000/svg" width="21.866" height="22.682" viewBox="0 0 21.866 22.682">
  <path id="Icon_metro-skype" data-name="Icon metro-skype" d="M23.4,14.972a11.18,11.18,0,0,0,.095-1.426A10.285,10.285,0,0,0,13.451,3.034a9.5,9.5,0,0,0-1.619.139,5.745,5.745,0,0,0-3.27-1.024A6.153,6.153,0,0,0,2.571,8.456a6.516,6.516,0,0,0,.965,3.433,11,11,0,0,0-.124,1.657,10.283,10.283,0,0,0,10.04,10.512,9.764,9.764,0,0,0,1.828-.177,5.768,5.768,0,0,0,3.167.951,6.154,6.154,0,0,0,5.991-6.307,6.51,6.51,0,0,0-1.04-3.553Zm-9.007,6.321c-3.19.175-4.683-.568-6.051-1.919-1.527-1.509-.914-3.23.331-3.317s1.99,1.484,2.654,1.921,3.186,1.427,4.518-.176c1.451-1.745-.965-2.648-2.736-2.922-2.528-.394-5.721-1.833-5.472-4.67a4.741,4.741,0,0,1,4.435-4.494A7.188,7.188,0,0,1,18,7.419c1.629,1.462.748,3.1-.29,3.228s-2.2-2.4-4.475-2.443c-2.35-.039-3.938,2.574-1.037,3.316s6.011,1.047,7.13,3.839-1.74,5.759-4.933,5.934Z" transform="translate(-2.571 -2.149)" fill="#a8cf45"/>
</svg>
