<svg xmlns="http://www.w3.org/2000/svg" width="22.985" height="22.985" viewBox="0 0 22.985 22.985">
  <path id="Icon_awesome-whatsapp" data-name="Icon awesome-whatsapp" d="M19.542,5.59A11.394,11.394,0,0,0,1.616,19.335L0,25.235,6.039,23.65a11.355,11.355,0,0,0,5.444,1.385h.005a11.5,11.5,0,0,0,11.5-11.39A11.435,11.435,0,0,0,19.542,5.59ZM11.487,23.116A9.45,9.45,0,0,1,6.665,21.8l-.344-.205-3.581.939.954-3.494-.226-.359a9.485,9.485,0,1,1,17.593-5.033,9.573,9.573,0,0,1-9.574,9.471Zm5.192-7.09c-.282-.144-1.683-.831-1.944-.924s-.451-.144-.641.144-.734.924-.9,1.118-.333.215-.616.072A7.747,7.747,0,0,1,8.7,13.05c-.292-.5.292-.467.836-1.555a.527.527,0,0,0-.026-.5c-.072-.144-.641-1.544-.877-2.114C8.4,8.33,8.168,8.407,7.993,8.4s-.354-.01-.544-.01a1.054,1.054,0,0,0-.759.354,3.2,3.2,0,0,0-1,2.375,5.575,5.575,0,0,0,1.16,2.945,12.718,12.718,0,0,0,4.864,4.3c1.806.78,2.514.847,3.417.713a2.915,2.915,0,0,0,1.919-1.354,2.38,2.38,0,0,0,.164-1.354C17.152,16.236,16.962,16.164,16.68,16.026Z" transform="translate(0 -2.25)" fill="#a8cf45"/>
</svg>
