<svg id="Icon_ionic-ios-timer" data-name="Icon ionic-ios-timer" xmlns="http://www.w3.org/2000/svg" width="23.727" height="23.733" viewBox="0 0 23.727 23.733">
  <path id="Path_1" data-name="Path 1" d="M15.8,27.671A11.867,11.867,0,0,1,7.569,7.26.953.953,0,0,1,8.892,8.631,9.959,9.959,0,1,0,16.754,5.89V9.6a.955.955,0,1,1-1.911,0V4.893a.955.955,0,0,1,.955-.955A11.867,11.867,0,0,1,15.8,27.671Z" transform="translate(-3.938 -3.938)" fill="#a8cf45"/>
  <path id="Path_2" data-name="Path 2" d="M12.194,11.363l5.9,4.242a1.786,1.786,0,0,1-2.077,2.907,1.725,1.725,0,0,1-.415-.415l-4.242-5.9a.6.6,0,0,1,.831-.831Z" transform="translate(-5.08 -5.08)" fill="#a8cf45"/>
</svg>
